<?xml version="1.0" standalone="no"?>
<!DOCTYPE svg PUBLIC "-//W3C//DTD SVG 20010904//EN"
 "http://www.w3.org/TR/2001/REC-SVG-20010904/DTD/svg10.dtd">
<svg version="1.0" xmlns="http://www.w3.org/2000/svg"
 width="700.000000pt" height="700.000000pt" viewBox="0 0 700.000000 700.000000"
 preserveAspectRatio="xMidYMid meet">
<metadata>
Created by potrace 1.14, written by Peter Selinger 2001-2017
</metadata>
<g transform="translate(0.000000,700.000000) scale(0.100000,-0.100000)"
fill="#000000" stroke="none">
<path d="M3278 6996 c-1 -2 -39 -6 -83 -10 -158 -12 -350 -43 -525 -86 -1011
-246 -1867 -938 -2321 -1877 -32 -68 -59 -125 -59 -127 0 -3 -11 -29 -24 -58
-60 -133 -155 -432 -181 -569 -3 -13 -11 -58 -20 -99 -22 -115 -30 -160 -41
-255 -26 -230 -26 -667 1 -826 2 -13 6 -46 9 -74 9 -78 22 -152 51 -285 21
-96 91 -339 114 -395 5 -11 25 -65 46 -120 50 -132 181 -398 250 -508 30 -49
55 -92 55 -97 0 -4 3 -10 8 -12 4 -2 33 -41 64 -88 169 -254 433 -535 708
-755 92 -74 370 -265 386 -265 4 0 15 -6 23 -14 26 -22 298 -158 408 -204 282
-116 583 -199 862 -238 25 -3 57 -8 71 -10 163 -25 682 -25 842 1 13 2 46 7
73 10 71 10 87 13 115 18 14 3 43 8 65 12 325 59 741 212 1039 384 49 28 91
51 93 51 10 0 268 180 353 247 151 118 324 281 450 422 36 41 70 79 76 85 6 6
48 61 94 121 150 197 277 405 383 628 26 53 47 99 47 102 0 2 11 28 24 57 57
127 151 421 182 573 17 81 54 301 59 350 4 33 9 71 11 85 9 46 11 524 4 605
-15 153 -21 210 -25 225 -2 8 -7 35 -10 60 -17 129 -80 384 -136 552 -349
1038 -1172 1862 -2209 2207 -174 58 -415 118 -550 136 -19 3 -46 7 -60 10 -13
2 -52 7 -86 11 -33 3 -74 8 -90 10 -32 5 -540 14 -546 10z m482 -591 c698 -68
1313 -357 1801 -844 377 -378 637 -834 764 -1339 67 -269 89 -456 88 -737 0
-219 -7 -292 -44 -505 -29 -169 -103 -435 -149 -535 -5 -11 -21 -49 -36 -85
-95 -233 -251 -488 -437 -719 -76 -94 -282 -302 -362 -366 -27 -22 -52 -43
-55 -46 -15 -17 -148 -114 -235 -171 -210 -137 -435 -245 -684 -328 -82 -27
-160 -52 -173 -54 -183 -40 -273 -57 -323 -62 -33 -4 -63 -8 -66 -10 -27 -15
-440 -23 -589 -11 -111 9 -334 42 -350 52 -3 2 -25 6 -48 10 -23 3 -103 24
-178 46 -400 117 -777 321 -1094 594 -153 131 -376 382 -501 565 -279 405
-459 915 -496 1405 -12 159 -4 568 12 595 1 3 5 29 9 57 20 166 79 401 153
600 48 131 177 401 234 488 166 257 258 374 434 550 143 143 152 151 275 246
286 221 557 364 900 476 74 24 144 45 155 47 11 3 49 11 85 20 61 14 194 38
285 50 22 3 85 9 140 12 55 4 101 8 103 9 5 5 317 -3 382 -10z"/>
<path d="M2544 6115 c-93 -21 -149 -70 -190 -165 -19 -44 -19 -99 -21 -2440
-3 -2259 -2 -2398 15 -2440 41 -107 100 -163 195 -185 158 -37 293 31 348 174
21 56 21 61 22 1054 l1 997 35 1 c105 4 159 25 609 235 52 24 95 44 97 44 1 0
45 20 96 44 52 24 146 67 209 96 176 80 218 99 307 141 46 22 84 39 87 39 2 0
51 22 109 49 58 28 181 85 274 127 92 42 197 90 233 107 36 16 202 92 369 169
319 146 350 164 418 235 32 35 43 55 47 91 16 123 -46 194 -262 298 -73 35
-134 64 -136 64 -2 0 -42 17 -88 39 -111 52 -193 89 -253 116 -27 13 -81 37
-120 55 -38 18 -286 131 -550 252 -855 392 -1089 499 -1173 539 -113 53 -203
79 -271 79 -56 0 -57 0 -70 36 -43 119 -188 183 -337 149z"/>
</g>
</svg>
